<svg xmlns="http://www.w3.org/2000/svg" viewBox="0 0 512 512" fill="none">
  <path fill="#FF3F26" d="M279.5 18 283 18.5 282 19.5 282 29.5 281 30.5 278 71.5 277 72.5 276 92.5 275 93.5 275 103.5 274 104.5 271 145.5 269 156.5 269 166.5 267 177.5 267 187.5 265 198.5 265 208.5 263 219.5 263 233.5 270.5 241 315 276.5 315 302.5 314 303.5 314 311.5 311 328.5 303 355.5 296.5 368 212.5 368 206 361.5Q185.4 341.1 169 316.5L151 281.5 141 247.5 140 235.5 138 228.5 137 204.5 138 203.5 139 178.5 143 157.5 154 125.5Q162.8 105.3 175 88.5 190.4 66.9 209.5 49 225.3 34.8 246.5 26L262.5 21 279.5 18ZM237 49 219 62 209 73 223 84Q232 72 246 65V63L238 51Q239 48 237 49ZM198 84 182 107 173 125 189 132 196 119 212 96 198 84ZM153 179V197H171V179H153ZM188 196V214H206V196H188ZM153 213V231H171V213H153ZM170 247V265H188V247H170Z"/>
  <path fill="#000" d="M276.5 1H295.5L299 3 301 9.5 300 10.5V20.5L298 31.5V41.5L297 42.5 296 62.5 295 63.5 294 83.5 293 84.5 292 104.5 291 105.5 290 125.5 289 126.5V135.5L288 136.5V146.5L287 147.5V156.5L286 157.5V167.5L285 168.5 284 181.5 286 180.5 341 62.5 351.5 44 358.5 43 367 50.5Q378.1 62.9 385 79.5L390 95.5 391 109.5 392 110.5V121.5L391 122.5 390 135.5 386 149.5 332 273.5V303.5L331 304.5 330 320.5 324 346.5 317 366.5 312 376.5 345 427H368.5L373 429 375 432.5V489.5L374 490.5V506.5L369.5 511 365.5 512H291.5L287.5 511 282 505.5 202 381.5 165 340.5 147 312.5 134 284.5 124 249.5V243.5L121 229.5 120 203.5 121 202.5V185.5L122 184.5V177.5L126 155.5 139 117.5Q147.6 98.1 159 81.5 176.4 56.4 198.5 36L218.5 21 233.5 13 256.5 5 276.5 1ZM279 17 258 21 244 26Q223 35 208 49L197 60 174 88 163 105 154 123 145 147 141 162 138 178 137 204 136 205 137 229 138 230 140 248Q143 255 144 265L151 285Q160 306 173 325L207 365 212 369H298L301 364 308 345 314 320 315 304 316 303V276L267 236 264 233V220L266 209V199L268 188V178L270 167V157L272 146V136L274 125 277 84 278 83V73L280 62 281 42 282 41V31L284 20V17H279ZM359 65 302 183 282 228 321 259 369 150 373 139 375 129V120L376 119 375 104 373 94Q368 77 359 65ZM224 385V388L289 488 292 489 332 436 301 388 299 385H224ZM346 443 307 495H358V483L359 482V443H346Z"/>
  <path fill="#000" d="M236.5 50 245 63.5 225 79.5 223.5 82 211 72.5 221.5 61 236.5 50ZM198 86 211 95Q197.9 111.2 187.5 131L174 123.5Q184.3 102.6 198 86ZM154 180H170V196H154V180ZM188 197H205V213H188V197ZM154 214H170V230H154V214ZM171 248H188V264H171V248Z"/>
  <path fill="#FF6136" d="M358.5 68Q374.3 85.7 375 118.5L374 119.5V128.5L370 143.5 320.5 257 283 226.5 350 83.5 358.5 68Z"/>
  <path fill="#FF513B" d="M225.5 386H297.5L300 388.5 328 430.5 330 435.5 292 487Q289.3 488.1 290 485.5L225.5 386Z"/>
  <path fill="#FE6B58" d="M346.5 444H357.5L358 444.5V489.5L357 495 308 494.5 346.5 444Z"/>
</svg>
